<mxfile host="Electron" modified="2024-10-28T10:33:23.737Z" agent="Mozilla/5.0 (Windows NT 10.0; Win64; x64) AppleWebKit/537.36 (KHTML, like Gecko) draw.io/24.6.4 Chrome/124.0.6367.207 Electron/30.0.6 Safari/537.36" etag="i5T7Uf5eHzlO7XBjrS17" version="24.6.4" type="device">
  <diagram name="Main" id="txrmghbB-Kes2_YjnxJh">
    <mxGraphModel dx="9262" dy="2232" grid="0" gridSize="10" guides="1" tooltips="1" connect="1" arrows="1" fold="1" page="0" pageScale="1" pageWidth="827" pageHeight="1169" math="0" shadow="0">
      <root>
        <mxCell id="0" />
        <mxCell id="1" parent="0" />
        <mxCell id="lA5Yyg30C_nGNtCZTOfl-1" value="" style="group" vertex="1" connectable="0" parent="1">
          <mxGeometry x="-5650" y="-670" width="465" height="300" as="geometry" />
        </mxCell>
        <mxCell id="lA5Yyg30C_nGNtCZTOfl-2" value="&lt;div&gt;&lt;font color=&quot;#000000&quot;&gt;DATA SOURCE: &quot;&lt;b&gt;EXAMPLES&lt;/b&gt;&quot;&lt;br&gt;[&lt;/font&gt;&lt;/div&gt;&lt;div&gt;&lt;font color=&quot;#000000&quot;&gt;&amp;nbsp; &amp;nbsp; {&lt;/font&gt;&lt;/div&gt;&lt;div&gt;&lt;font color=&quot;#000000&quot;&gt;&amp;nbsp; &amp;nbsp; &amp;nbsp; &amp;nbsp; &quot;id&quot;: &quot;12345&quot;,&lt;/font&gt;&lt;/div&gt;&lt;div&gt;&lt;font color=&quot;#000000&quot;&gt;&amp;nbsp; &amp;nbsp; &amp;nbsp; &amp;nbsp; &quot;property1&quot;: &quot;abc1&quot;,&lt;/font&gt;&lt;/div&gt;&lt;div&gt;&lt;font color=&quot;#000000&quot;&gt;&amp;nbsp; &amp;nbsp; &amp;nbsp; &amp;nbsp; &quot;property2&quot;: 1234&lt;/font&gt;&lt;/div&gt;&lt;div&gt;&lt;font color=&quot;#000000&quot;&gt;&amp;nbsp; &amp;nbsp; },&lt;/font&gt;&lt;/div&gt;&lt;div&gt;&lt;font color=&quot;#000000&quot;&gt;&amp;nbsp; &amp;nbsp; {&lt;/font&gt;&lt;/div&gt;&lt;div&gt;&lt;font color=&quot;#000000&quot;&gt;&amp;nbsp; &amp;nbsp; &amp;nbsp; &amp;nbsp; &quot;id&quot;: &quot;22345&quot;,&lt;/font&gt;&lt;/div&gt;&lt;div&gt;&lt;font color=&quot;#000000&quot;&gt;&amp;nbsp; &amp;nbsp; &amp;nbsp; &amp;nbsp; &quot;property1&quot;: &quot;abc2&quot;,&lt;/font&gt;&lt;/div&gt;&lt;div&gt;&lt;font color=&quot;#000000&quot;&gt;&amp;nbsp; &amp;nbsp; &amp;nbsp; &amp;nbsp; &quot;property2&quot;: 1235&lt;/font&gt;&lt;/div&gt;&lt;div&gt;&lt;font color=&quot;#000000&quot;&gt;&amp;nbsp; &amp;nbsp; },&lt;/font&gt;&lt;/div&gt;&lt;div&gt;&lt;font color=&quot;#000000&quot;&gt;&amp;nbsp; &amp;nbsp; {&lt;/font&gt;&lt;/div&gt;&lt;div&gt;&lt;font color=&quot;#000000&quot;&gt;&amp;nbsp; &amp;nbsp; &amp;nbsp; &amp;nbsp; &quot;id&quot;: &quot;32345&quot;,&lt;/font&gt;&lt;/div&gt;&lt;div&gt;&lt;font color=&quot;#000000&quot;&gt;&amp;nbsp; &amp;nbsp; &amp;nbsp; &amp;nbsp; &quot;property1&quot;: &quot;abc3&quot;,&lt;/font&gt;&lt;/div&gt;&lt;div&gt;&lt;font color=&quot;#000000&quot;&gt;&amp;nbsp; &amp;nbsp; &amp;nbsp; &amp;nbsp; &quot;property2&quot;: 1236&lt;/font&gt;&lt;/div&gt;&lt;div&gt;&lt;font color=&quot;#000000&quot;&gt;&amp;nbsp; &amp;nbsp; }&lt;/font&gt;&lt;/div&gt;&lt;div&gt;&lt;font color=&quot;#000000&quot;&gt;]&lt;/font&gt;&lt;/div&gt;" style="text;whiteSpace=wrap;overflow=hidden;rounded=0;sketch=1;curveFitting=1;jiggle=2;spacingLeft=100;spacingRight=12;fillColor=#FFFFCC;strokeColor=#F4BB2C;verticalAlign=top;align=left;fontFamily=Lucida Console;html=1;spacingTop=22;spacingBottom=22;rotation=0;fontColor=#D6A427;" vertex="1" parent="lA5Yyg30C_nGNtCZTOfl-1">
          <mxGeometry width="465" height="299.99999999999994" as="geometry" />
        </mxCell>
        <mxCell id="lA5Yyg30C_nGNtCZTOfl-3" value="" style="shape=image;verticalLabelPosition=bottom;labelBackgroundColor=default;verticalAlign=top;aspect=fixed;imageAspect=0;image=data:image/svg+xml,PHN2ZyB4bWxucz0iaHR0cDovL3d3dy53My5vcmcvMjAwMC9zdmciIHZpZXdCb3g9IjAgMCAxMTQuOTggMTIyLjg4IiBkYXRhLW5hbWU9IkxheWVyIDEiIGlkPSJMYXllcl8xIj48ZGVmcz48c3R5bGU+LmNscy0xe2ZpbGw6IzQwM2M0Nzt9LmNscy0ye2ZpbGw6I2Y0YmIyYzt9PC9zdHlsZT48L2RlZnM+PHRpdGxlPmlkZWEtYnVsYjwvdGl0bGU+PHBhdGggZD0iTTY4LjUsMTE2LjM0YTEzLjI4LDEzLjI4LDAsMCwxLTQuODIsNC44MywxMi41NSwxMi41NSwwLDAsMS01LjUzLDEuNjksMTEuNDksMTEuNDksMCwwLDEtNS42OS0xLjExLDExLjYyLDExLjYyLDAsMCwxLTMuMzctMi41MWwxOS40MS0yLjlabTIuNjktMjAuNTEtLjYzLDMtLjE2LDIuMS0yNS4zMiwzLjc3YTMwLjQ4LDMwLjQ4LDAsMCwwLS43MS00LjgzbDI2LjgyLTRabS0uODQsOS42NSwwLDEuMjcsMCwuNDRhMTcuMzksMTcuMzksMCwwLDEsMCwyLjVsLS4zOCwxLjgzTDQ2LjUzLDExNWwtLjQxLS45NC0uOTItMy43NiwwLTEuMDksMjUuMTctMy43NVoiIGNsYXNzPSJjbHMtMSIvPjxwYXRoIGQ9Ik01Ni43NiwzLjg0YTMuOTMsMy45MywwLDAsMSw0LTMuODNoMEw2MSwwYTMuOTEsMy45MSwwLDAsMSwzLjYsNGgwYTEuMjcsMS4yNywwLDAsMSwwLC4ybC0uMjEsOC4zN2gwYTIuNDUsMi40NSwwLDAsMSwwLC4yNywzLjkxLDMuOTEsMCwwLDEtMy45NSwzLjZoMGwtLjI3LDBhMy45MSwzLjkxLDAsMCwxLTMuNi0zLjk1aDBhMS4yNywxLjI3LDAsMCwxLDAtLjJsLjItOC40MVoiIGNsYXNzPSJjbHMtMSIvPjxwYXRoIGQ9Ik05My44LDE1LjM4YTMuOSwzLjksMCwwLDEsNS40Mi0xLjA3aDBhMy44NywzLjg3LDAsMCwxLDEuNjYsMi40OSw0LDQsMCwwLDEtLjU5LDIuOTRsLTQuNzYsNy4xM0EzLjk0LDMuOTQsMCwwLDEsOTMsMjguNTRhMy45MSwzLjkxLDAsMCwxLTQuNjEtMy4wOEE0LDQsMCwwLDEsODksMjIuNTJsNC43OC03LjE0WiIgY2xhc3M9ImNscy0xIi8+PHBhdGggZD0iTTExMC42OSw0OS41MWguMTNBMy45MiwzLjkyLDAsMCwxLDExNSw1M3YwYS40OS40OSwwLDAsMSwwLC4xMywzLjkyLDMuOTIsMCwwLDEtMy41MSw0LjE0bC04LjUzLjlhMy45MiwzLjkyLDAsMCwxLS44LTcuOGMyLjg1LS4zMSw1LjcxLS42NCw4LjU2LS45MVoiIGNsYXNzPSJjbHMtMSIvPjxwYXRoIGQ9Ik00LDYxLjY2YTMuOTMsMy45MywwLDAsMS00LTMuOCwzLjkxLDMuOTEsMCwwLDEsMy44LTRsOC41Ny0uMjlhMy45MSwzLjkxLDAsMCwxLDQsMy44di4wNmgwdi4xNGEzLjkxLDMuOTEsMCwwLDEtMy44LDMuODRoLS4xNUw0LDYxLjY2WiIgY2xhc3M9ImNscy0xIi8+PHBhdGggZD0iTTE0LjI2LDE4LjVhMy45MiwzLjkyLDAsMCwxLDUuMzMtNS43NWw2LjI4LDUuODVhNCw0LDAsMCwxLDEuMjUsMi43MywzLjksMy45LDAsMCwxLTEsMi44MSw0LDQsMCwwLDEtMi43MywxLjI1LDMuOSwzLjksMCwwLDEtMi44MS0xTDE0LjI2LDE4LjVaIiBjbGFzcz0iY2xzLTEiLz48cGF0aCBkPSJNMzAuNjIsNzUuMTZhMzYuMywzNi4zLDAsMCwxLTIuNDctNC40NCwzNS41NiwzNS41NiwwLDAsMS0zLjU1LTE1LjRjLjEyLTEyLjk0LDcuNDUtMjQuOTMsMTkuNjMtMjkuODhhMzMuNzYsMzMuNzYsMCwwLDEsMTUuODYtMi4yN0EzNi42MSwzNi42MSwwLDAsMSw3NS4yMywyOCwzMS4yNywzMS4yNywwLDAsMSw4OC40NSw0MywzMy4yMiwzMy4yMiwwLDAsMSw5MSw1NC42NWEzMy42LDMzLjYsMCwwLDEtMi41NywxMy42N2MtMyw3LjQzLTEwLDE1LjM4LTE0LjYsMjIuNjktMS0uMTktNS42Ni43MS03LC45bDkuNDMtMzIuNzlhMS43NiwxLjc2LDAsMSwwLTMuMzgtMUw2Myw5Mi40OWwtOS4zNiwxLjM5TDQzLjc1LDYyLjQ1YTEuNzUsMS43NSwwLDAsMCwxLjg1LS44M2w3LTExLjkzLDMuNTcsOC4xOWExLjc1LDEuNzUsMCwwLDAsMi4zLjkxLDEuNzgsMS43OCwwLDAsMCwuOTMtMWgwbDMuMTYtOCwzLjcsOS43NmExLjc1LDEuNzUsMCwwLDAsMy4yOC0xLjI0bC01LjI3LTEzLjlBMS43NiwxLjc2LDAsMCwwLDYxLDQ0LjM1TDU3LjcsNTIuNjJsLTMuMjYtNy40OGExLjcxLDEuNzEsMCwwLDAtLjcyLS44MSwxLjc0LDEuNzQsMCwwLDAtMi4zOS42MmwtOC41MiwxNC41LS42MS0xLjkzYTEuNzQsMS43NCwwLDEsMC0zLjMzLDFMNTAuMTMsOTQuNGwtNi43OCwxQTQ3LjM5LDQ3LjM5LDAsMCwwLDQwLDg3Ljc0Yy0yLjcxLTQuODktNi4zNi03Ljk0LTkuMzctMTIuNThaIiBjbGFzcz0iY2xzLTIiLz48L3N2Zz4=;resizable=0;" vertex="1" parent="lA5Yyg30C_nGNtCZTOfl-1">
          <mxGeometry x="22" y="24.444197421076034" width="50.49" height="54" as="geometry" />
        </mxCell>
        <mxCell id="lA5Yyg30C_nGNtCZTOfl-4" value="{&#xa;    &quot;id&quot;: &quot;22345&quot;,&#xa;    &quot;property1&quot;: &quot;abc2&quot;,&#xa;    &quot;property2&quot;: 1235&#xa;}" style="text;whiteSpace=wrap;overflow=hidden;rounded=0;sketch=1;curveFitting=1;jiggle=2;spacingLeft=12;spacingRight=12;fillColor=#d5e8d4;strokeColor=#82b366;fontFamily=Lucida Console;" vertex="1" parent="1">
          <mxGeometry x="-6360" y="-760" width="240" height="95" as="geometry" />
        </mxCell>
        <mxCell id="lA5Yyg30C_nGNtCZTOfl-5" value="Property: &lt;font face=&quot;Lucida Console&quot;&gt;dataSource = { &quot;dataSource&quot;: &quot;EXAMPLES&quot;, &quot;query&quot;: { &quot;id&quot;: &quot;22345&quot; } }&lt;/font&gt;" style="text;html=1;align=center;verticalAlign=middle;resizable=0;points=[];autosize=1;strokeColor=none;fillColor=none;" vertex="1" parent="1">
          <mxGeometry x="-6368" y="-802" width="570" height="30" as="geometry" />
        </mxCell>
        <mxCell id="lA5Yyg30C_nGNtCZTOfl-6" value="Property: &lt;font face=&quot;Lucida Console&quot;&gt;dataSource = { &quot;dataSource&quot;: &quot;EXAMPLES&quot; }&lt;/font&gt;" style="text;html=1;align=center;verticalAlign=middle;resizable=0;points=[];autosize=1;strokeColor=none;fillColor=none;" vertex="1" parent="1">
          <mxGeometry x="-6368" y="-546" width="370" height="30" as="geometry" />
        </mxCell>
        <mxCell id="lA5Yyg30C_nGNtCZTOfl-7" value="[&#xa;    {&#xa;        &quot;id&quot;: &quot;12345&quot;,&#xa;        &quot;property1&quot;: &quot;abc1&quot;,&#xa;        &quot;property2&quot;: 1234&#xa;    },&#xa;    {&#xa;        &quot;id&quot;: &quot;22345&quot;,&#xa;        &quot;property1&quot;: &quot;abc2&quot;,&#xa;        &quot;property2&quot;: 1235&#xa;    },&#xa;    {&#xa;        &quot;id&quot;: &quot;32345&quot;,&#xa;        &quot;property1&quot;: &quot;abc3&quot;,&#xa;        &quot;property2&quot;: 1236&#xa;    }&#xa;]" style="text;whiteSpace=wrap;overflow=hidden;rounded=0;sketch=1;curveFitting=1;jiggle=2;spacingLeft=12;spacingRight=12;fillColor=#d5e8d4;strokeColor=#82b366;fontFamily=Lucida Console;" vertex="1" parent="1">
          <mxGeometry x="-6360" y="-510" width="240" height="260" as="geometry" />
        </mxCell>
        <mxCell id="lA5Yyg30C_nGNtCZTOfl-8" style="edgeStyle=orthogonalEdgeStyle;rounded=0;orthogonalLoop=1;jettySize=auto;html=1;entryX=1;entryY=0.5;entryDx=0;entryDy=0;fontColor=#E6E6E6;strokeColor=#c7c7c7;" edge="1" parent="1" source="lA5Yyg30C_nGNtCZTOfl-2" target="lA5Yyg30C_nGNtCZTOfl-4">
          <mxGeometry relative="1" as="geometry">
            <mxPoint x="-5900" y="-610" as="targetPoint" />
          </mxGeometry>
        </mxCell>
        <mxCell id="lA5Yyg30C_nGNtCZTOfl-9" style="edgeStyle=orthogonalEdgeStyle;rounded=0;orthogonalLoop=1;jettySize=auto;html=1;entryX=1;entryY=0.5;entryDx=0;entryDy=0;fontColor=#E6E6E6;strokeColor=#c7c7c7;" edge="1" parent="1" source="lA5Yyg30C_nGNtCZTOfl-2" target="lA5Yyg30C_nGNtCZTOfl-7">
          <mxGeometry relative="1" as="geometry" />
        </mxCell>
        <mxCell id="lA5Yyg30C_nGNtCZTOfl-10" value="VIRTUALLY CONNECTED" style="edgeLabel;html=1;align=center;verticalAlign=middle;resizable=0;points=[];" vertex="1" connectable="0" parent="lA5Yyg30C_nGNtCZTOfl-9">
          <mxGeometry x="-0.412" y="4" relative="1" as="geometry">
            <mxPoint x="49" y="16" as="offset" />
          </mxGeometry>
        </mxCell>
        <mxCell id="lA5Yyg30C_nGNtCZTOfl-11" value="Here: definition of data source" style="text;html=1;align=center;verticalAlign=middle;resizable=0;points=[];autosize=1;strokeColor=none;fillColor=none;" vertex="1" parent="1">
          <mxGeometry x="-5489" y="-716" width="178" height="26" as="geometry" />
        </mxCell>
        <mxCell id="lA5Yyg30C_nGNtCZTOfl-12" value="Example data usage" style="text;html=1;align=center;verticalAlign=middle;resizable=0;points=[];autosize=1;strokeColor=none;fillColor=none;" vertex="1" parent="1">
          <mxGeometry x="-6519" y="-729" width="127" height="26" as="geometry" />
        </mxCell>
        <mxCell id="lA5Yyg30C_nGNtCZTOfl-13" value="Example data usage" style="text;html=1;align=center;verticalAlign=middle;resizable=0;points=[];autosize=1;strokeColor=none;fillColor=none;" vertex="1" parent="1">
          <mxGeometry x="-6519" y="-396" width="127" height="26" as="geometry" />
        </mxCell>
      </root>
    </mxGraphModel>
  </diagram>
</mxfile>
